<mxfile host="65bd71144e">
    <diagram id="BsJJMlh7w6Zq6paSyuua" name="Page-1">
        <mxGraphModel dx="1614" dy="638" grid="1" gridSize="10" guides="1" tooltips="1" connect="1" arrows="1" fold="1" page="1" pageScale="1" pageWidth="850" pageHeight="1100" math="0" shadow="0">
            <root>
                <mxCell id="0"/>
                <mxCell id="1" parent="0"/>
                <mxCell id="2" value="" style="childLayout=tableLayout;recursiveResize=0;shadow=0;strokeColor=#E6E6E6;align=center;" vertex="1" parent="1">
                    <mxGeometry x="-845" y="20" width="841" height="466" as="geometry"/>
                </mxCell>
                <mxCell id="3" value="" style="shape=tableRow;horizontal=0;startSize=0;swimlaneHead=0;swimlaneBody=0;top=0;left=0;bottom=0;right=0;dropTarget=0;collapsible=0;recursiveResize=0;expand=0;fontStyle=0;fillColor=none;strokeColor=inherit;align=center;" vertex="1" parent="2">
                    <mxGeometry width="841" height="44" as="geometry"/>
                </mxCell>
                <mxCell id="4" value="&lt;span style=&quot;white-space: pre;&quot;&gt;&#9;&lt;/span&gt;STEP" style="connectable=0;recursiveResize=0;strokeColor=inherit;fillColor=none;align=left;whiteSpace=wrap;html=1;fontStyle=1;labelPosition=center;verticalLabelPosition=middle;verticalAlign=middle;" vertex="1" parent="3">
                    <mxGeometry width="480" height="44" as="geometry">
                        <mxRectangle width="480" height="44" as="alternateBounds"/>
                    </mxGeometry>
                </mxCell>
                <mxCell id="5" value="&lt;span style=&quot;white-space: pre;&quot;&gt;&#9;&lt;/span&gt;COST CALCULATION" style="connectable=0;recursiveResize=0;strokeColor=inherit;fillColor=none;align=center;whiteSpace=wrap;html=1;fontStyle=1" vertex="1" parent="3">
                    <mxGeometry x="480" width="200" height="44" as="geometry">
                        <mxRectangle width="200" height="44" as="alternateBounds"/>
                    </mxGeometry>
                </mxCell>
                <mxCell id="6" value="&lt;span style=&quot;white-space: pre;&quot;&gt;&#9;&lt;/span&gt;STEP COST" style="connectable=0;recursiveResize=0;strokeColor=inherit;fillColor=none;align=center;whiteSpace=wrap;html=1;fontStyle=1" vertex="1" parent="3">
                    <mxGeometry x="680" width="161" height="44" as="geometry">
                        <mxRectangle width="161" height="44" as="alternateBounds"/>
                    </mxGeometry>
                </mxCell>
                <mxCell id="7" style="shape=tableRow;horizontal=0;startSize=0;swimlaneHead=0;swimlaneBody=0;top=0;left=0;bottom=0;right=0;dropTarget=0;collapsible=0;recursiveResize=0;expand=0;fontStyle=0;fillColor=none;strokeColor=inherit;align=center;" vertex="1" parent="2">
                    <mxGeometry y="44" width="841" height="36" as="geometry"/>
                </mxCell>
                <mxCell id="8" value="&lt;span style=&quot;white-space: pre;&quot;&gt;&#9;&lt;/span&gt;1 USER opens ingestion system configuration page" style="connectable=0;recursiveResize=0;strokeColor=inherit;fillColor=none;align=left;whiteSpace=wrap;html=1;labelPosition=center;verticalLabelPosition=middle;verticalAlign=middle;" vertex="1" parent="7">
                    <mxGeometry width="480" height="36" as="geometry">
                        <mxRectangle width="480" height="36" as="alternateBounds"/>
                    </mxGeometry>
                </mxCell>
                <mxCell id="9" value="1 x 1 x 2.5" style="connectable=0;recursiveResize=0;strokeColor=inherit;fillColor=none;align=center;whiteSpace=wrap;html=1;" vertex="1" parent="7">
                    <mxGeometry x="480" width="200" height="36" as="geometry">
                        <mxRectangle width="200" height="36" as="alternateBounds"/>
                    </mxGeometry>
                </mxCell>
                <mxCell id="10" value="2.5" style="connectable=0;recursiveResize=0;strokeColor=inherit;fillColor=none;align=center;whiteSpace=wrap;html=1;" vertex="1" parent="7">
                    <mxGeometry x="680" width="161" height="36" as="geometry">
                        <mxRectangle width="161" height="36" as="alternateBounds"/>
                    </mxGeometry>
                </mxCell>
                <mxCell id="11" style="shape=tableRow;horizontal=0;startSize=0;swimlaneHead=0;swimlaneBody=0;top=0;left=0;bottom=0;right=0;dropTarget=0;collapsible=0;recursiveResize=0;expand=0;fontStyle=0;fillColor=none;strokeColor=inherit;align=center;" vertex="1" parent="2">
                    <mxGeometry y="80" width="841" height="36" as="geometry"/>
                </mxCell>
                <mxCell id="12" value="&lt;span style=&quot;&quot;&gt;&#9;&lt;/span&gt;&lt;span style=&quot;white-space: pre;&quot;&gt;&#9;&lt;/span&gt;2 SYSTEM shows ingestion system configuration page" style="connectable=0;recursiveResize=0;strokeColor=inherit;fillColor=none;align=left;whiteSpace=wrap;html=1;labelPosition=center;verticalLabelPosition=middle;verticalAlign=middle;" vertex="1" parent="11">
                    <mxGeometry width="480" height="36" as="geometry">
                        <mxRectangle width="480" height="36" as="alternateBounds"/>
                    </mxGeometry>
                </mxCell>
                <mxCell id="13" value="" style="connectable=0;recursiveResize=0;strokeColor=inherit;fillColor=none;align=center;whiteSpace=wrap;html=1;" vertex="1" parent="11">
                    <mxGeometry x="480" width="200" height="36" as="geometry">
                        <mxRectangle width="200" height="36" as="alternateBounds"/>
                    </mxGeometry>
                </mxCell>
                <mxCell id="14" style="connectable=0;recursiveResize=0;strokeColor=inherit;fillColor=none;align=center;whiteSpace=wrap;html=1;" vertex="1" parent="11">
                    <mxGeometry x="680" width="161" height="36" as="geometry">
                        <mxRectangle width="161" height="36" as="alternateBounds"/>
                    </mxGeometry>
                </mxCell>
                <mxCell id="15" style="shape=tableRow;horizontal=0;startSize=0;swimlaneHead=0;swimlaneBody=0;top=0;left=0;bottom=0;right=0;dropTarget=0;collapsible=0;recursiveResize=0;expand=0;fontStyle=0;fillColor=none;strokeColor=inherit;align=center;" vertex="1" parent="2">
                    <mxGeometry y="116" width="841" height="44" as="geometry"/>
                </mxCell>
                <mxCell id="16" value="&lt;span style=&quot;border-color: var(--border-color);&quot;&gt;&#9;&lt;/span&gt;&lt;span style=&quot;&quot;&gt;&#9;&lt;/span&gt;&lt;span style=&quot;white-space: pre;&quot;&gt;&#9;&lt;/span&gt;3 USER sets minimum # of records to start with" style="connectable=0;recursiveResize=0;strokeColor=inherit;fillColor=none;align=left;whiteSpace=wrap;html=1;labelPosition=center;verticalLabelPosition=middle;verticalAlign=middle;" vertex="1" parent="15">
                    <mxGeometry width="480" height="44" as="geometry">
                        <mxRectangle width="480" height="44" as="alternateBounds"/>
                    </mxGeometry>
                </mxCell>
                <mxCell id="17" value="1 x &lt;font color=&quot;#ff6666&quot;&gt;4 &lt;/font&gt;x 2.5" style="connectable=0;recursiveResize=0;strokeColor=inherit;fillColor=none;align=center;whiteSpace=wrap;html=1;" vertex="1" parent="15">
                    <mxGeometry x="480" width="200" height="44" as="geometry">
                        <mxRectangle width="200" height="44" as="alternateBounds"/>
                    </mxGeometry>
                </mxCell>
                <mxCell id="18" value="10" style="connectable=0;recursiveResize=0;strokeColor=inherit;fillColor=none;align=center;whiteSpace=wrap;html=1;" vertex="1" parent="15">
                    <mxGeometry x="680" width="161" height="44" as="geometry">
                        <mxRectangle width="161" height="44" as="alternateBounds"/>
                    </mxGeometry>
                </mxCell>
                <mxCell id="19" style="shape=tableRow;horizontal=0;startSize=0;swimlaneHead=0;swimlaneBody=0;top=0;left=0;bottom=0;right=0;dropTarget=0;collapsible=0;recursiveResize=0;expand=0;fontStyle=0;fillColor=none;strokeColor=inherit;align=center;" vertex="1" parent="2">
                    <mxGeometry y="160" width="841" height="44" as="geometry"/>
                </mxCell>
                <mxCell id="20" value="&lt;span style=&quot;&quot;&gt;&#9;&lt;/span&gt;&lt;span style=&quot;white-space: pre;&quot;&gt;&#9;&lt;/span&gt;4&amp;nbsp;USER sets maximum # of missing samples" style="connectable=0;recursiveResize=0;strokeColor=inherit;fillColor=none;align=left;whiteSpace=wrap;html=1;labelPosition=center;verticalLabelPosition=middle;verticalAlign=middle;" vertex="1" parent="19">
                    <mxGeometry width="480" height="44" as="geometry">
                        <mxRectangle width="480" height="44" as="alternateBounds"/>
                    </mxGeometry>
                </mxCell>
                <mxCell id="21" value="1 x &lt;font color=&quot;#ff6666&quot;&gt;4 &lt;/font&gt;x 2.5" style="connectable=0;recursiveResize=0;strokeColor=inherit;fillColor=none;align=center;whiteSpace=wrap;html=1;" vertex="1" parent="19">
                    <mxGeometry x="480" width="200" height="44" as="geometry">
                        <mxRectangle width="200" height="44" as="alternateBounds"/>
                    </mxGeometry>
                </mxCell>
                <mxCell id="22" value="10" style="connectable=0;recursiveResize=0;strokeColor=inherit;fillColor=none;align=center;whiteSpace=wrap;html=1;" vertex="1" parent="19">
                    <mxGeometry x="680" width="161" height="44" as="geometry">
                        <mxRectangle width="161" height="44" as="alternateBounds"/>
                    </mxGeometry>
                </mxCell>
                <mxCell id="23" style="shape=tableRow;horizontal=0;startSize=0;swimlaneHead=0;swimlaneBody=0;top=0;left=0;bottom=0;right=0;dropTarget=0;collapsible=0;recursiveResize=0;expand=0;fontStyle=0;fillColor=none;strokeColor=inherit;align=center;" vertex="1" parent="2">
                    <mxGeometry y="204" width="841" height="44" as="geometry"/>
                </mxCell>
                <mxCell id="24" value="&lt;span style=&quot;border-color: var(--border-color);&quot;&gt;&#9;&lt;/span&gt;&lt;span style=&quot;&quot;&gt;&#9;&lt;/span&gt;&lt;span style=&quot;white-space: pre;&quot;&gt;&#9;&lt;/span&gt;5&amp;nbsp;USER sets the IP address of Evaluation system" style="connectable=0;recursiveResize=0;strokeColor=inherit;fillColor=none;align=left;whiteSpace=wrap;html=1;labelPosition=center;verticalLabelPosition=middle;verticalAlign=middle;" vertex="1" parent="23">
                    <mxGeometry width="480" height="44" as="geometry">
                        <mxRectangle width="480" height="44" as="alternateBounds"/>
                    </mxGeometry>
                </mxCell>
                <mxCell id="25" value="1 x 1 x 2.5" style="connectable=0;recursiveResize=0;strokeColor=inherit;fillColor=none;align=center;whiteSpace=wrap;html=1;" vertex="1" parent="23">
                    <mxGeometry x="480" width="200" height="44" as="geometry">
                        <mxRectangle width="200" height="44" as="alternateBounds"/>
                    </mxGeometry>
                </mxCell>
                <mxCell id="26" value="2.5" style="connectable=0;recursiveResize=0;strokeColor=inherit;fillColor=none;align=center;whiteSpace=wrap;html=1;" vertex="1" parent="23">
                    <mxGeometry x="680" width="161" height="44" as="geometry">
                        <mxRectangle width="161" height="44" as="alternateBounds"/>
                    </mxGeometry>
                </mxCell>
                <mxCell id="27" style="shape=tableRow;horizontal=0;startSize=0;swimlaneHead=0;swimlaneBody=0;top=0;left=0;bottom=0;right=0;dropTarget=0;collapsible=0;recursiveResize=0;expand=0;fontStyle=0;fillColor=none;strokeColor=inherit;align=center;" vertex="1" parent="2">
                    <mxGeometry y="248" width="841" height="42" as="geometry"/>
                </mxCell>
                <mxCell id="28" value="&lt;span style=&quot;border-color: var(--border-color);&quot;&gt;&#9;&lt;/span&gt;&lt;span style=&quot;white-space: pre;&quot;&gt;&#9;&lt;/span&gt;5&amp;nbsp;USER sets the IP address of Preparation system" style="connectable=0;recursiveResize=0;strokeColor=inherit;fillColor=none;align=left;whiteSpace=wrap;html=1;labelPosition=center;verticalLabelPosition=middle;verticalAlign=middle;" vertex="1" parent="27">
                    <mxGeometry width="480" height="42" as="geometry">
                        <mxRectangle width="480" height="42" as="alternateBounds"/>
                    </mxGeometry>
                </mxCell>
                <mxCell id="29" value="1 x 1 x 2.5" style="connectable=0;recursiveResize=0;strokeColor=inherit;fillColor=none;align=center;whiteSpace=wrap;html=1;" vertex="1" parent="27">
                    <mxGeometry x="480" width="200" height="42" as="geometry">
                        <mxRectangle width="200" height="42" as="alternateBounds"/>
                    </mxGeometry>
                </mxCell>
                <mxCell id="30" value="2.5" style="connectable=0;recursiveResize=0;strokeColor=inherit;fillColor=none;align=center;whiteSpace=wrap;html=1;" vertex="1" parent="27">
                    <mxGeometry x="680" width="161" height="42" as="geometry">
                        <mxRectangle width="161" height="42" as="alternateBounds"/>
                    </mxGeometry>
                </mxCell>
                <mxCell id="31" style="shape=tableRow;horizontal=0;startSize=0;swimlaneHead=0;swimlaneBody=0;top=0;left=0;bottom=0;right=0;dropTarget=0;collapsible=0;recursiveResize=0;expand=0;fontStyle=0;fillColor=none;strokeColor=inherit;align=center;" vertex="1" parent="2">
                    <mxGeometry y="290" width="841" height="44" as="geometry"/>
                </mxCell>
                <mxCell id="32" value="&lt;span style=&quot;white-space: pre;&quot;&gt;&#9;6&lt;/span&gt;&amp;nbsp;SYSTEM enables the &quot;CONFIRM&quot; button" style="connectable=0;recursiveResize=0;strokeColor=inherit;fillColor=none;align=left;whiteSpace=wrap;html=1;labelPosition=center;verticalLabelPosition=middle;verticalAlign=middle;" vertex="1" parent="31">
                    <mxGeometry width="480" height="44" as="geometry">
                        <mxRectangle width="480" height="44" as="alternateBounds"/>
                    </mxGeometry>
                </mxCell>
                <mxCell id="33" value="" style="connectable=0;recursiveResize=0;strokeColor=inherit;fillColor=none;align=center;whiteSpace=wrap;html=1;" vertex="1" parent="31">
                    <mxGeometry x="480" width="200" height="44" as="geometry">
                        <mxRectangle width="200" height="44" as="alternateBounds"/>
                    </mxGeometry>
                </mxCell>
                <mxCell id="34" value="" style="connectable=0;recursiveResize=0;strokeColor=inherit;fillColor=none;align=center;whiteSpace=wrap;html=1;" vertex="1" parent="31">
                    <mxGeometry x="680" width="161" height="44" as="geometry">
                        <mxRectangle width="161" height="44" as="alternateBounds"/>
                    </mxGeometry>
                </mxCell>
                <mxCell id="35" style="shape=tableRow;horizontal=0;startSize=0;swimlaneHead=0;swimlaneBody=0;top=0;left=0;bottom=0;right=0;dropTarget=0;collapsible=0;recursiveResize=0;expand=0;fontStyle=0;fillColor=none;strokeColor=inherit;align=center;" vertex="1" parent="2">
                    <mxGeometry y="334" width="841" height="44" as="geometry"/>
                </mxCell>
                <mxCell id="36" value="&lt;span style=&quot;white-space: pre;&quot;&gt;&#9;&lt;/span&gt;7 USER presses confirm" style="connectable=0;recursiveResize=0;strokeColor=inherit;fillColor=none;align=left;whiteSpace=wrap;html=1;labelPosition=center;verticalLabelPosition=middle;verticalAlign=middle;" vertex="1" parent="35">
                    <mxGeometry width="480" height="44" as="geometry">
                        <mxRectangle width="480" height="44" as="alternateBounds"/>
                    </mxGeometry>
                </mxCell>
                <mxCell id="37" value="1 x 1 x 2.5" style="connectable=0;recursiveResize=0;strokeColor=inherit;fillColor=none;align=center;whiteSpace=wrap;html=1;" vertex="1" parent="35">
                    <mxGeometry x="480" width="200" height="44" as="geometry">
                        <mxRectangle width="200" height="44" as="alternateBounds"/>
                    </mxGeometry>
                </mxCell>
                <mxCell id="38" value="2.5" style="connectable=0;recursiveResize=0;strokeColor=inherit;fillColor=none;align=center;whiteSpace=wrap;html=1;" vertex="1" parent="35">
                    <mxGeometry x="680" width="161" height="44" as="geometry">
                        <mxRectangle width="161" height="44" as="alternateBounds"/>
                    </mxGeometry>
                </mxCell>
                <mxCell id="39" style="shape=tableRow;horizontal=0;startSize=0;swimlaneHead=0;swimlaneBody=0;top=0;left=0;bottom=0;right=0;dropTarget=0;collapsible=0;recursiveResize=0;expand=0;fontStyle=0;fillColor=none;strokeColor=inherit;align=center;" vertex="1" parent="2">
                    <mxGeometry y="378" width="841" height="44" as="geometry"/>
                </mxCell>
                <mxCell id="40" value="&lt;span style=&quot;white-space: pre;&quot;&gt;&#9;&lt;/span&gt;8&amp;nbsp;USER closes data balancing form" style="connectable=0;recursiveResize=0;strokeColor=inherit;fillColor=none;align=left;whiteSpace=wrap;html=1;labelPosition=center;verticalLabelPosition=middle;verticalAlign=middle;" vertex="1" parent="39">
                    <mxGeometry width="480" height="44" as="geometry">
                        <mxRectangle width="480" height="44" as="alternateBounds"/>
                    </mxGeometry>
                </mxCell>
                <mxCell id="41" value="1 x 1 x 2.5" style="connectable=0;recursiveResize=0;strokeColor=inherit;fillColor=none;align=center;whiteSpace=wrap;html=1;" vertex="1" parent="39">
                    <mxGeometry x="480" width="200" height="44" as="geometry">
                        <mxRectangle width="200" height="44" as="alternateBounds"/>
                    </mxGeometry>
                </mxCell>
                <mxCell id="42" value="2.5" style="connectable=0;recursiveResize=0;strokeColor=inherit;fillColor=none;align=center;whiteSpace=wrap;html=1;" vertex="1" parent="39">
                    <mxGeometry x="680" width="161" height="44" as="geometry">
                        <mxRectangle width="161" height="44" as="alternateBounds"/>
                    </mxGeometry>
                </mxCell>
                <mxCell id="51" style="shape=tableRow;horizontal=0;startSize=0;swimlaneHead=0;swimlaneBody=0;top=0;left=0;bottom=0;right=0;dropTarget=0;collapsible=0;recursiveResize=0;expand=0;fontStyle=0;fillColor=none;strokeColor=inherit;align=center;" vertex="1" parent="2">
                    <mxGeometry y="422" width="841" height="44" as="geometry"/>
                </mxCell>
                <mxCell id="52" style="connectable=0;recursiveResize=0;strokeColor=inherit;fillColor=none;align=left;whiteSpace=wrap;html=1;labelPosition=center;verticalLabelPosition=middle;verticalAlign=middle;" vertex="1" parent="51">
                    <mxGeometry width="480" height="44" as="geometry">
                        <mxRectangle width="480" height="44" as="alternateBounds"/>
                    </mxGeometry>
                </mxCell>
                <mxCell id="53" value="&lt;b&gt;HUMAN TASKS COST&lt;/b&gt;" style="connectable=0;recursiveResize=0;strokeColor=inherit;fillColor=none;align=center;whiteSpace=wrap;html=1;" vertex="1" parent="51">
                    <mxGeometry x="480" width="200" height="44" as="geometry">
                        <mxRectangle width="200" height="44" as="alternateBounds"/>
                    </mxGeometry>
                </mxCell>
                <mxCell id="54" value="32.5" style="connectable=0;recursiveResize=0;strokeColor=inherit;fillColor=none;align=center;whiteSpace=wrap;html=1;fontStyle=1" vertex="1" parent="51">
                    <mxGeometry x="680" width="161" height="44" as="geometry">
                        <mxRectangle width="161" height="44" as="alternateBounds"/>
                    </mxGeometry>
                </mxCell>
                <mxCell id="56" value="sforzo 4: è criteriale e dipende da quanto è grande l'azienda&lt;br&gt;&lt;br&gt;lo sforzo è 4 x numero di criteri individuati&lt;br&gt;&lt;br&gt;Quindi avremo tipo 3 criteri, e.g. : azienda grande, piccola, media&lt;br&gt;&lt;br&gt;&lt;br&gt;Va scritto sul REPORT!&amp;nbsp;" style="text;html=1;align=center;verticalAlign=middle;resizable=0;points=[];autosize=1;fillColor=#f5f5f5;fontColor=#333333;strokeColor=#666666;" vertex="1" parent="1">
                    <mxGeometry x="5" y="105" width="370" height="130" as="geometry"/>
                </mxCell>
            </root>
        </mxGraphModel>
    </diagram>
</mxfile>